<?xml version="1.0" encoding="UTF-8" standalone="no"?>
<!-- Created with Inkscape (http://www.inkscape.org/) -->
<svg
   xmlns:svg="http://www.w3.org/2000/svg"
   xmlns="http://www.w3.org/2000/svg"
   version="1.0"
   width="550"
   height="700.5"
   id="svg2793">
  <defs
     id="defs3" />
  <g
     id="g2310">
    <g
       transform="translate(2.104963,263.2979)"
       id="g2284">
      <path
         d="M 199.3189,309.27285 L 198.98423,309.18921 L 198.64957,309.13343 L 198.31492,309.07765 L 197.98025,308.99398 L 197.61769,308.96609 L 197.28302,308.91032 L 196.94836,308.85454 L 196.5858,308.82665 L 196.25113,308.79876 L 195.88857,308.74298 L 195.5539,308.74298 L 195.21926,308.71509 L 194.85668,308.6872 L 194.52203,308.6872 L 194.15947,308.6872 L 193.82481,308.6872 C 189.08369,308.6872 184.42627,309.9701 180.35447,312.4522"
         style="font-style:normal;font-variant:normal;font-weight:normal;font-stretch:normal;letter-spacing:normal;word-spacing:normal;text-anchor:start;fill:none;fill-opacity:1;stroke:black;stroke-width:0.26351529;stroke-linecap:butt;stroke-linejoin:miter;stroke-miterlimit:10.43299961;stroke-dasharray:none;stroke-dashoffset:0;stroke-opacity:1"
         id="path742" />
      <path
         d="M 231.00065,309.27285 L 231.33532,309.18921 L 231.66999,309.13343 L 232.00466,309.07765 L 232.36722,308.99398 L 232.70188,308.96609 L 233.03653,308.91032 L 233.39911,308.85454 L 233.73378,308.82665 L 234.06842,308.79876 L 234.43098,308.74298 L 234.76565,308.74298 L 235.12821,308.71509 L 235.46288,308.6872 L 235.79755,308.6872 L 236.16008,308.6872 L 236.49477,308.6872 C 241.23586,308.6872 245.89331,309.9701 249.96509,312.4522"
         style="font-style:normal;font-variant:normal;font-weight:normal;font-stretch:normal;letter-spacing:normal;word-spacing:normal;text-anchor:start;fill:none;fill-opacity:1;stroke:black;stroke-width:0.26351529;stroke-linecap:butt;stroke-linejoin:miter;stroke-miterlimit:10.43299961;stroke-dasharray:none;stroke-dashoffset:0;stroke-opacity:1"
         id="path744" />
      <path
         d="M 325.82279,309.27285 L 325.48812,309.18921 L 325.12556,309.13343 L 324.7909,309.07765 L 324.45623,308.99398 L 324.12158,308.96609 L 323.75902,308.91032 L 323.42433,308.85454 L 323.0618,308.82665 L 322.72713,308.79876 L 322.39246,308.74298 L 322.0299,308.74298 L 321.69524,308.71509 L 321.33268,308.6872 L 320.99803,308.6872 L 320.63545,308.6872 L 320.30078,308.6872 C 315.55969,308.6872 310.90224,309.9701 306.85835,312.4522"
         style="font-style:normal;font-variant:normal;font-weight:normal;font-stretch:normal;letter-spacing:normal;word-spacing:normal;text-anchor:start;fill:none;fill-opacity:1;stroke:black;stroke-width:0.26351529;stroke-linecap:butt;stroke-linejoin:miter;stroke-miterlimit:10.43299961;stroke-dasharray:none;stroke-dashoffset:0;stroke-opacity:1"
         id="path746" />
      <path
         d="M 357.47665,309.27285 L 357.81132,309.18921 L 358.14599,309.13343 L 358.50852,309.07765 L 358.84319,308.99398 L 359.17788,308.96609 L 359.51253,308.91032 L 359.87509,308.85454 L 360.20976,308.82665 L 360.57231,308.79876 L 360.90698,308.74298 L 361.24165,308.74298 L 361.60421,308.71509 L 361.93885,308.6872 L 362.30143,308.6872 L 362.63608,308.6872 L 362.99864,308.6872 C 367.73975,308.6872 372.3972,309.9701 376.44107,312.4522"
         style="font-style:normal;font-variant:normal;font-weight:normal;font-stretch:normal;letter-spacing:normal;word-spacing:normal;text-anchor:start;fill:none;fill-opacity:1;stroke:black;stroke-width:0.26351529;stroke-linecap:butt;stroke-linejoin:miter;stroke-miterlimit:10.43299961;stroke-dasharray:none;stroke-dashoffset:0;stroke-opacity:1"
         id="path748" />
      <path
         d="M 183.53382,326.67552 L 183.50593,328.29307 L 183.36648,329.88274 L 183.17126,331.47239 L 182.89237,333.03416 L 182.5577,334.56806 L 182.11148,336.07406 L 181.60947,337.52429 L 181.05171,338.9745 L 180.41027,340.36895 L 179.71304,341.73552 L 178.96004,343.04628 L 178.15125,344.32918 L 177.2588,345.58418 L 176.3106,346.78339 L 175.33448,347.92684 L 174.27472,349.01449 L 173.18705,350.07427 L 172.0436,351.05039 L 170.84437,351.99859 L 169.58939,352.89104 L 168.30649,353.69983 L 166.9957,354.45281 L 165.62916,355.15006 L 164.23473,355.79148 L 162.78448,356.37715 L 161.33427,356.85127 L 159.82829,357.29749 L 158.29439,357.63216 L 156.73263,357.91105 L 155.14295,358.10625 L 153.55328,358.24572 L 151.90784,358.27361 C 134.44942,358.27361 120.30976,344.13393 120.30976,326.67552 C 120.30976,309.18921 134.44942,295.04955 151.90784,295.04955 C 169.39416,295.04955 183.53382,309.18921 183.53382,326.67552 z "
         style="font-style:normal;font-variant:normal;font-weight:normal;font-stretch:normal;letter-spacing:normal;word-spacing:normal;text-anchor:start;fill:none;fill-opacity:1;stroke:black;stroke-width:0.52701449;stroke-linecap:butt;stroke-linejoin:miter;stroke-miterlimit:10.43299961;stroke-dasharray:none;stroke-dashoffset:0;stroke-opacity:1"
         id="path750" />
      <path
         d="M 310.00979,326.67552 L 309.9819,328.29307 L 309.87037,329.88274 L 309.64726,331.47239 L 309.36837,333.03416 L 309.0337,334.56806 L 308.61536,336.07406 L 308.11336,337.52429 L 307.52769,338.9745 L 306.91413,340.36895 L 306.21693,341.73552 L 305.43604,343.04628 L 304.62725,344.32918 L 303.7348,345.58418 L 302.81447,346.78339 L 301.81048,347.92684 L 300.7507,349.01449 L 299.66303,350.07427 L 298.5196,351.05039 L 297.32037,351.99859 L 296.09325,352.89104 L 294.81038,353.69983 L 293.4717,354.45281 L 292.10516,355.15006 L 290.71071,355.79148 L 289.28837,356.37715 L 287.81027,356.85127 L 286.30426,357.29749 L 284.77039,357.63216 L 283.2086,357.91105 L 281.64684,358.10625 L 280.02928,358.24572 L 278.41173,358.27361 C 260.92539,358.27361 246.78576,344.13393 246.78576,326.67552 C 246.78576,309.18921 260.92539,295.04955 278.41173,295.04955 C 295.87016,295.04955 310.00979,309.18921 310.00979,326.67552 z "
         style="font-style:normal;font-variant:normal;font-weight:normal;font-stretch:normal;letter-spacing:normal;word-spacing:normal;text-anchor:start;fill:black;fill-opacity:1;stroke:black;stroke-width:0;stroke-linecap:butt;stroke-linejoin:miter;stroke-miterlimit:10.43299961;stroke-dasharray:none;stroke-dashoffset:0;stroke-opacity:1"
         id="path752" />
      <path
         d="M 310.00979,326.67552 L 309.9819,328.29307 L 309.87037,329.88274 L 309.64726,331.47239 L 309.36837,333.03416 L 309.0337,334.56806 L 308.61536,336.07406 L 308.11336,337.52429 L 307.52769,338.9745 L 306.91413,340.36895 L 306.21693,341.73552 L 305.43604,343.04628 L 304.62725,344.32918 L 303.7348,345.58418 L 302.81447,346.78339 L 301.81048,347.92684 L 300.7507,349.01449 L 299.66303,350.07427 L 298.5196,351.05039 L 297.32037,351.99859 L 296.09325,352.89104 L 294.81038,353.69983 L 293.4717,354.45281 L 292.10516,355.15006 L 290.71071,355.79148 L 289.28837,356.37715 L 287.81027,356.85127 L 286.30426,357.29749 L 284.77039,357.63216 L 283.2086,357.91105 L 281.64684,358.10625 L 280.02928,358.24572 L 278.41173,358.27361 C 260.92539,358.27361 246.78576,344.13393 246.78576,326.67552 C 246.78576,309.18921 260.92539,295.04955 278.41173,295.04955 C 295.87016,295.04955 310.00979,309.18921 310.00979,326.67552 z "
         style="font-style:normal;font-variant:normal;font-weight:normal;font-stretch:normal;letter-spacing:normal;word-spacing:normal;text-anchor:start;fill:none;fill-opacity:1;stroke:black;stroke-width:0.26351529;stroke-linecap:butt;stroke-linejoin:miter;stroke-miterlimit:10.43299961;stroke-dasharray:none;stroke-dashoffset:0;stroke-opacity:1"
         id="path754" />
      <path
         d="M 436.51368,326.67552 L 436.4579,328.29307 L 436.34635,329.88274 L 436.15115,331.47239 L 435.87226,333.03416 L 435.50968,334.56806 L 435.09136,336.07406 L 434.58936,337.52429 L 434.03158,338.9745 L 433.39013,340.36895 L 432.69291,341.73552 L 431.9399,343.04628 L 431.10323,344.32918 L 430.23869,345.58418 L 429.29047,346.78339 L 428.28646,347.92684 L 427.25459,349.01449 L 426.13903,350.07427 L 424.9956,351.05039 L 423.79637,351.99859 L 422.56925,352.89104 L 421.28635,353.69983 L 419.9477,354.45281 L 418.60905,355.15006 L 417.18671,355.79148 L 415.76437,356.37715 L 414.28625,356.85127 L 412.78026,357.29749 L 411.24637,357.63216 L 409.71249,357.91105 L 408.12282,358.10625 L 406.50527,358.24572 L 404.88771,358.27361 C 387.42928,358.27361 373.26174,344.13393 373.26174,326.67552 C 373.26174,309.18921 387.42928,295.04955 404.88771,295.04955 C 422.34614,295.04955 436.51368,309.18921 436.51368,326.67552 z "
         style="font-style:normal;font-variant:normal;font-weight:normal;font-stretch:normal;letter-spacing:normal;word-spacing:normal;text-anchor:start;fill:none;fill-opacity:1;stroke:black;stroke-width:0.52701449;stroke-linecap:butt;stroke-linejoin:miter;stroke-miterlimit:10.43299961;stroke-dasharray:none;stroke-dashoffset:0;stroke-opacity:1"
         id="path756" />
      <path
         d="M 207.26723,326.67552 L 207.23935,327.56795 L 207.21146,328.43251 L 207.15568,329.29707 L 207.0999,330.16163 L 207.01623,330.99828 L 206.90468,331.83495 L 206.76523,332.64373 L 206.62579,333.42463 L 206.48634,334.20552 L 206.29112,334.9585 L 206.12378,335.68362 L 205.90067,336.38084 L 205.67756,337.07807 L 205.45445,337.71949 L 205.20345,338.36096 L 204.95247,338.94661 L 204.67358,339.53228 L 204.36677,340.09006 L 204.08791,340.59207 L 203.78113,341.09405 L 203.44646,341.54027 L 203.11179,341.95861 L 202.77712,342.34905 L 202.41456,342.68372 L 202.0799,342.9905 L 201.68947,343.26939 L 201.32691,343.4925 L 200.93647,343.68773 L 200.54602,343.85506 L 200.15557,343.96662 L 199.76513,344.0224 L 199.34679,344.05028 C 194.99615,344.05028 191.45424,336.26929 191.45424,326.67552 C 191.45424,317.05385 194.99615,309.27285 199.34679,309.27285 C 203.72535,309.27285 207.26723,317.05385 207.26723,326.67552 z "
         style="font-style:normal;font-variant:normal;font-weight:normal;font-stretch:normal;letter-spacing:normal;word-spacing:normal;text-anchor:start;fill:none;fill-opacity:1;stroke:black;stroke-width:0.26351529;stroke-linecap:butt;stroke-linejoin:miter;stroke-miterlimit:10.43299961;stroke-dasharray:none;stroke-dashoffset:0;stroke-opacity:1"
         id="path758" />
      <path
         d="M 223.08023,326.67552 L 223.05232,327.56795 L 223.02443,328.43251 L 222.96865,329.29707 L 222.9129,330.16163 L 222.82923,330.99828 L 222.71765,331.83495 L 222.57823,332.64373 L 222.43876,333.42463 L 222.29934,334.20552 L 222.10412,334.9585 L 221.90889,335.68362 L 221.71367,336.38084 L 221.49056,337.07807 L 221.26744,337.71949 L 221.01644,338.36096 L 220.73755,338.94661 L 220.48655,339.53228 L 220.17977,340.09006 L 219.90088,340.59207 L 219.5941,341.09405 L 219.25946,341.54027 L 218.92479,341.95861 L 218.5901,342.34905 L 218.22756,342.68372 L 217.89289,342.9905 L 217.50245,343.26939 L 217.13989,343.4925 L 216.74944,343.68773 L 216.359,343.85506 L 215.96855,343.96662 L 215.57812,344.0224 L 215.15979,344.05028 C 210.78123,344.05028 207.26723,336.26929 207.26723,326.67552 C 207.26723,317.05385 210.78123,309.27285 215.15979,309.27285 C 219.53835,309.27285 223.08023,317.05385 223.08023,326.67552 z "
         style="font-style:normal;font-variant:normal;font-weight:normal;font-stretch:normal;letter-spacing:normal;word-spacing:normal;text-anchor:start;fill:none;fill-opacity:1;stroke:black;stroke-width:0.26351529;stroke-linecap:butt;stroke-linejoin:miter;stroke-miterlimit:10.43299961;stroke-dasharray:none;stroke-dashoffset:0;stroke-opacity:1"
         id="path760" />
      <path
         d="M 238.86532,326.67552 L 238.86532,327.56795 L 238.83743,328.43251 L 238.78165,329.29707 L 238.72587,330.16163 L 238.61432,330.99828 L 238.53065,331.83495 L 238.3912,332.64373 L 238.25176,333.42463 L 238.08442,334.20552 L 237.91709,334.9585 L 237.72187,335.68362 L 237.52664,336.38084 L 237.30355,337.07807 L 237.08044,337.71949 L 236.82944,338.36096 L 236.55055,338.94661 L 236.29955,339.53228 L 235.99277,340.09006 L 235.71388,340.59207 L 235.37921,341.09405 L 235.07243,341.54027 L 234.73776,341.95861 L 234.40309,342.34905 L 234.04054,342.68372 L 233.678,342.9905 L 233.31542,343.26939 L 232.95289,343.4925 L 232.56244,343.68773 L 232.17199,343.85506 L 231.78155,343.96662 L 231.3911,344.0224 L 230.97276,344.05028 C 226.59421,344.05028 223.08023,336.26929 223.08023,326.67552 C 223.08023,317.05385 226.59421,309.27285 230.97276,309.27285 C 235.35132,309.27285 238.86532,317.05385 238.86532,326.67552 z "
         style="font-style:normal;font-variant:normal;font-weight:normal;font-stretch:normal;letter-spacing:normal;word-spacing:normal;text-anchor:start;fill:none;fill-opacity:1;stroke:black;stroke-width:0.26351529;stroke-linecap:butt;stroke-linejoin:miter;stroke-miterlimit:10.43299961;stroke-dasharray:none;stroke-dashoffset:0;stroke-opacity:1"
         id="path762" />
      <path
         d="M 333.74321,326.67552 L 333.74321,327.56795 L 333.68746,328.43251 L 333.65957,329.29707 L 333.5759,330.16163 L 333.49221,330.99828 L 333.38068,331.83495 L 333.26912,332.64373 L 333.12968,333.42463 L 332.96234,334.20552 L 332.79501,334.9585 L 332.59978,335.68362 L 332.37667,336.38084 L 332.18145,337.07807 L 331.93045,337.71949 L 331.67945,338.36096 L 331.42844,338.94661 L 331.14955,339.53228 L 330.87066,340.09006 L 330.56391,340.59207 L 330.25713,341.09405 L 329.92246,341.54027 L 329.61568,341.95861 L 329.25312,342.34905 L 328.91845,342.68372 L 328.55589,342.9905 L 328.19334,343.26939 L 327.80289,343.4925 L 327.44036,343.68773 L 327.04989,343.85506 L 326.63157,343.96662 L 326.24113,344.0224 L 325.82279,344.05028 C 321.47212,344.05028 317.93024,336.26929 317.93024,326.67552 C 317.93024,317.05385 321.47212,309.27285 325.82279,309.27285 C 330.20135,309.27285 333.74321,317.05385 333.74321,326.67552 z "
         style="font-style:normal;font-variant:normal;font-weight:normal;font-stretch:normal;letter-spacing:normal;word-spacing:normal;text-anchor:start;fill:none;fill-opacity:1;stroke:black;stroke-width:0.26351529;stroke-linecap:butt;stroke-linejoin:miter;stroke-miterlimit:10.43299961;stroke-dasharray:none;stroke-dashoffset:0;stroke-opacity:1"
         id="path764" />
      <path
         d="M 349.55621,326.67552 L 349.52832,327.56795 L 349.50043,328.43251 L 349.47254,329.29707 L 349.38887,330.16163 L 349.30521,330.99828 L 349.19365,331.83495 L 349.0821,332.64373 L 348.94265,333.42463 L 348.77532,334.20552 L 348.608,334.9585 L 348.41278,335.68362 L 348.18965,336.38084 L 347.96653,337.07807 L 347.74344,337.71949 L 347.49244,338.36096 L 347.24144,338.94661 L 346.96255,339.53228 L 346.68366,340.09006 L 346.37688,340.59207 L 346.0701,341.09405 L 345.73543,341.54027 L 345.40076,341.95861 L 345.0661,342.34905 L 344.73145,342.68372 L 344.36887,342.9905 L 344.00633,343.26939 L 343.61589,343.4925 L 343.22544,343.68773 L 342.83499,343.85506 L 342.44457,343.96662 L 342.0541,344.0224 L 341.63579,344.05028 C 337.28512,344.05028 333.74321,336.26929 333.74321,326.67552 C 333.74321,317.05385 337.28512,309.27285 341.63579,309.27285 C 346.01432,309.27285 349.55621,317.05385 349.55621,326.67552 z "
         style="font-style:normal;font-variant:normal;font-weight:normal;font-stretch:normal;letter-spacing:normal;word-spacing:normal;text-anchor:start;fill:none;fill-opacity:1;stroke:black;stroke-width:0.26351529;stroke-linecap:butt;stroke-linejoin:miter;stroke-miterlimit:10.43299961;stroke-dasharray:none;stroke-dashoffset:0;stroke-opacity:1"
         id="path766" />
      <path
         d="M 365.36921,326.67552 L 365.34132,327.56795 L 365.31343,328.43251 L 365.25763,329.29707 L 365.20187,330.16163 L 365.1182,330.99828 L 365.00663,331.83495 L 364.89509,332.64373 L 364.72774,333.42463 L 364.58831,334.20552 L 364.39309,334.9585 L 364.22576,335.68362 L 364.00264,336.38084 L 363.77953,337.07807 L 363.55642,337.71949 L 363.30542,338.36096 L 363.05442,338.94661 L 362.77553,339.53228 L 362.49663,340.09006 L 362.18986,340.59207 L 361.88308,341.09405 L 361.54843,341.54027 L 361.21376,341.95861 L 360.87909,342.34905 L 360.54442,342.68372 L 360.18187,342.9905 L 359.81931,343.26939 L 359.42886,343.4925 L 359.03842,343.68773 L 358.64799,343.85506 L 358.25752,343.96662 L 357.8671,344.0224 L 357.44876,344.05028 C 353.09809,344.05028 349.55621,336.26929 349.55621,326.67552 C 349.55621,317.05385 353.09809,309.27285 357.44876,309.27285 C 361.82732,309.27285 365.36921,317.05385 365.36921,326.67552 z "
         style="font-style:normal;font-variant:normal;font-weight:normal;font-stretch:normal;letter-spacing:normal;word-spacing:normal;text-anchor:start;fill:none;fill-opacity:1;stroke:black;stroke-width:0.26351529;stroke-linecap:butt;stroke-linejoin:miter;stroke-miterlimit:10.43299961;stroke-dasharray:none;stroke-dashoffset:0;stroke-opacity:1"
         id="path768" />
      <line
         x1="151.90782"
         y1="295.04944"
         x2="151.90782"
         y2="247.6106"
         style="font-style:normal;font-variant:normal;font-weight:normal;font-stretch:normal;letter-spacing:normal;word-spacing:normal;text-anchor:start;fill:none;fill-opacity:1;stroke:black;stroke-width:1.5810436;stroke-linecap:butt;stroke-linejoin:miter;stroke-miterlimit:10.43299961;stroke-dasharray:none;stroke-dashoffset:0;stroke-opacity:1"
         id="line770" />
      <polygon
         points="170.45,305.31 168.93,311.36 167.42,305.31 170.45,305.31 "
         transform="matrix(2.788886,0,0,-2.788886,-319.2187,1119.36)"
         style="font-style:normal;font-variant:normal;font-weight:normal;font-stretch:normal;letter-spacing:normal;word-spacing:normal;text-anchor:start;fill:black;fill-opacity:1;stroke:black;stroke-width:0;stroke-linecap:butt;stroke-linejoin:miter;stroke-miterlimit:10.43299961;stroke-dasharray:none;stroke-dashoffset:0;stroke-opacity:1"
         id="polygon772" />
      <polygon
         points="170.45,305.31 168.93,311.36 167.42,305.31 170.45,305.31 "
         transform="matrix(2.788886,0,0,-2.788886,-319.2187,1119.36)"
         style="font-style:normal;font-variant:normal;font-weight:normal;font-stretch:normal;letter-spacing:normal;word-spacing:normal;text-anchor:start;fill:none;fill-opacity:1;stroke:black;stroke-width:0.56691003;stroke-linecap:butt;stroke-linejoin:miter;stroke-miterlimit:10.43299961;stroke-dasharray:none;stroke-dashoffset:0;stroke-opacity:1"
         id="polygon774" />
      <line
         x1="404.88773"
         y1="295.04944"
         x2="404.88773"
         y2="247.6106"
         style="font-style:normal;font-variant:normal;font-weight:normal;font-stretch:normal;letter-spacing:normal;word-spacing:normal;text-anchor:start;fill:none;fill-opacity:1;stroke:black;stroke-width:1.5810436;stroke-linecap:butt;stroke-linejoin:miter;stroke-miterlimit:10.43299961;stroke-dasharray:none;stroke-dashoffset:0;stroke-opacity:1"
         id="line776" />
      <polygon
         points="261.15,305.31 259.64,311.36 258.13,305.31 261.15,305.31 "
         transform="matrix(2.788886,0,0,-2.788886,-319.2187,1119.36)"
         style="font-style:normal;font-variant:normal;font-weight:normal;font-stretch:normal;letter-spacing:normal;word-spacing:normal;text-anchor:start;fill:black;fill-opacity:1;stroke:black;stroke-width:0;stroke-linecap:butt;stroke-linejoin:miter;stroke-miterlimit:10.43299961;stroke-dasharray:none;stroke-dashoffset:0;stroke-opacity:1"
         id="polygon778" />
      <polygon
         points="261.15,305.31 259.64,311.36 258.13,305.31 261.15,305.31 "
         transform="matrix(2.788886,0,0,-2.788886,-319.2187,1119.36)"
         style="font-style:normal;font-variant:normal;font-weight:normal;font-stretch:normal;letter-spacing:normal;word-spacing:normal;text-anchor:start;fill:none;fill-opacity:1;stroke:black;stroke-width:0.56691003;stroke-linecap:butt;stroke-linejoin:miter;stroke-miterlimit:10.43299961;stroke-dasharray:none;stroke-dashoffset:0;stroke-opacity:1"
         id="polygon780" />
      <line
         x1="278.41174"
         y1="358.27362"
         x2="278.41174"
         y2="405.71255"
         style="font-style:normal;font-variant:normal;font-weight:normal;font-stretch:normal;letter-spacing:normal;word-spacing:normal;text-anchor:start;fill:none;fill-opacity:1;stroke:black;stroke-width:1.5810436;stroke-linecap:butt;stroke-linejoin:miter;stroke-miterlimit:10.43299961;stroke-dasharray:none;stroke-dashoffset:0;stroke-opacity:1"
         id="line782" />
      <polygon
         points="212.77,263.16 214.29,257.11 215.8,263.16 212.77,263.16 "
         transform="matrix(2.788886,0,0,-2.788886,-319.2187,1119.36)"
         style="font-style:normal;font-variant:normal;font-weight:normal;font-stretch:normal;letter-spacing:normal;word-spacing:normal;text-anchor:start;fill:black;fill-opacity:1;stroke:black;stroke-width:0;stroke-linecap:butt;stroke-linejoin:miter;stroke-miterlimit:10.43299961;stroke-dasharray:none;stroke-dashoffset:0;stroke-opacity:1"
         id="polygon784" />
      <polygon
         points="212.77,263.16 214.29,257.11 215.8,263.16 212.77,263.16 "
         transform="matrix(2.788886,0,0,-2.788886,-319.2187,1119.36)"
         style="font-style:normal;font-variant:normal;font-weight:normal;font-stretch:normal;letter-spacing:normal;word-spacing:normal;text-anchor:start;fill:none;fill-opacity:1;stroke:black;stroke-width:0.56691003;stroke-linecap:butt;stroke-linejoin:miter;stroke-miterlimit:10.43299961;stroke-dasharray:none;stroke-dashoffset:0;stroke-opacity:1"
         id="polygon786" />
      <text
         x="53.475212"
         y="256.60141"
         style="font-size:25.29675484px;font-style:normal;font-variant:normal;font-weight:normal;font-stretch:normal;letter-spacing:normal;word-spacing:normal;text-anchor:start;fill:black;fill-opacity:1;stroke:none;stroke-linecap:butt;stroke-linejoin:miter;stroke-miterlimit:10.43299961;stroke-dasharray:none;stroke-dashoffset:0;stroke-opacity:1;font-family:Times-Roman, &quot;Times Roman&quot;, serif"
         id="text788">(c)</text>
    </g>
    <g
       transform="translate(-1.698934,0)"
       id="g2235">
      <path
         d="M 197.75714,121.1346 L 197.42247,121.05091 L 197.05991,120.99516 L 196.72524,120.91149 L 196.39058,120.85571 L 196.05591,120.79993 L 195.69335,120.77202 L 195.35868,120.71627 L 194.99615,120.68838 L 194.66148,120.6326 L 194.32679,120.60471 L 193.96425,120.57682 L 193.62958,120.57682 L 193.26703,120.54893 L 192.93236,120.54893 L 192.5698,120.52102 L 192.23513,120.52102 C 187.49404,120.52102 182.83659,121.83181 178.7927,124.28604"
         style="font-style:normal;font-variant:normal;font-weight:normal;font-stretch:normal;letter-spacing:normal;word-spacing:normal;text-anchor:start;fill:none;fill-opacity:1;stroke:black;stroke-width:0.26351529;stroke-linecap:butt;stroke-linejoin:miter;stroke-miterlimit:10.43299961;stroke-dasharray:none;stroke-dashoffset:0;stroke-opacity:1"
         id="path702" />
      <path
         d="M 229.41098,121.1346 L 229.74565,121.05091 L 230.08034,120.99516 L 230.44287,120.91149 L 230.77754,120.85571 L 231.11221,120.79993 L 231.47477,120.77202 L 231.80943,120.71627 L 232.1441,120.68838 L 232.50664,120.6326 L 232.84133,120.60471 L 233.176,120.57682 L 233.53853,120.57682 L 233.8732,120.54893 L 234.23578,120.54893 L 234.57043,120.52102 L 234.93299,120.52102 C 239.6741,120.52102 244.33155,121.83181 248.37541,124.28604"
         style="font-style:normal;font-variant:normal;font-weight:normal;font-stretch:normal;letter-spacing:normal;word-spacing:normal;text-anchor:start;fill:none;fill-opacity:1;stroke:black;stroke-width:0.26351529;stroke-linecap:butt;stroke-linejoin:miter;stroke-miterlimit:10.43299961;stroke-dasharray:none;stroke-dashoffset:0;stroke-opacity:1"
         id="path704" />
      <path
         d="M 324.23312,121.1346 L 323.89845,121.05091 L 323.5638,120.99516 L 323.20124,120.91149 L 322.86657,120.85571 L 322.53191,120.79993 L 322.19724,120.77202 L 321.83468,120.71627 L 321.50001,120.68838 L 321.13745,120.6326 L 320.80279,120.60471 L 320.46814,120.57682 L 320.10556,120.57682 L 319.77091,120.54893 L 319.40836,120.54893 L 319.07369,120.52102 L 318.71113,120.52102 C 313.97002,120.52102 309.31259,121.83181 305.2687,124.28604"
         style="font-style:normal;font-variant:normal;font-weight:normal;font-stretch:normal;letter-spacing:normal;word-spacing:normal;text-anchor:start;fill:none;fill-opacity:1;stroke:black;stroke-width:0.26351529;stroke-linecap:butt;stroke-linejoin:miter;stroke-miterlimit:10.43299961;stroke-dasharray:none;stroke-dashoffset:0;stroke-opacity:1"
         id="path706" />
      <path
         d="M 355.887,121.1346 L 356.22165,121.05091 L 356.5842,120.99516 L 356.91887,120.91149 L 357.25354,120.85571 L 357.58821,120.79993 L 357.95077,120.77202 L 358.28541,120.71627 L 358.6201,120.68838 L 358.98266,120.6326 L 359.31731,120.60471 L 359.67986,120.57682 L 360.01453,120.57682 L 360.37709,120.54893 L 360.71176,120.54893 L 361.07432,120.52102 L 361.40898,120.52102 C 366.15008,120.52102 370.80752,121.83181 374.85141,124.28604"
         style="font-style:normal;font-variant:normal;font-weight:normal;font-stretch:normal;letter-spacing:normal;word-spacing:normal;text-anchor:start;fill:none;fill-opacity:1;stroke:black;stroke-width:0.26351529;stroke-linecap:butt;stroke-linejoin:miter;stroke-miterlimit:10.43299961;stroke-dasharray:none;stroke-dashoffset:0;stroke-opacity:1"
         id="path708" />
      <path
         d="M 181.97203,138.50937 L 181.91625,140.1548 L 181.80472,141.74447 L 181.58161,143.33413 L 181.30272,144.89591 L 180.96805,146.42979 L 180.54971,147.90791 L 180.04771,149.38603 L 179.46204,150.83623 L 178.84848,152.23069 L 178.15125,153.59723 L 177.37038,154.90801 L 176.5616,156.19088 L 175.66915,157.44589 L 174.74881,158.61723 L 173.74483,159.78855 L 172.68505,160.87622 L 171.59737,161.936 L 170.45395,162.9121 L 169.25472,163.86033 L 168.0276,164.72489 L 166.74473,165.56156 L 165.40605,166.31456 L 164.03949,167.01177 L 162.64506,167.65324 L 161.22272,168.21099 L 159.7446,168.713 L 158.23861,169.13133 L 156.70474,169.49389 L 155.14295,169.77278 L 153.58116,169.968 L 151.96362,170.10743 L 150.34606,170.13532 C 132.85974,170.13532 118.72009,155.96779 118.72009,138.50937 C 118.72009,121.05091 132.85974,106.88339 150.34606,106.88339 C 167.80449,106.88339 181.97203,121.05091 181.97203,138.50937 z "
         style="font-style:normal;font-variant:normal;font-weight:normal;font-stretch:normal;letter-spacing:normal;word-spacing:normal;text-anchor:start;fill:none;fill-opacity:1;stroke:black;stroke-width:0.52701449;stroke-linecap:butt;stroke-linejoin:miter;stroke-miterlimit:10.43299961;stroke-dasharray:none;stroke-dashoffset:0;stroke-opacity:1"
         id="path710" />
      <path
         d="M 308.44803,138.50937 L 308.39225,140.1548 L 308.2807,141.74447 L 308.08547,143.33413 L 307.80658,144.89591 L 307.44402,146.42979 L 307.02571,147.90791 L 306.52371,149.38603 L 305.96593,150.83623 L 305.32448,152.23069 L 304.62725,153.59723 L 303.87425,154.90801 L 303.03758,156.19088 L 302.17304,157.44589 L 301.22481,158.61723 L 300.22081,159.78855 L 299.18891,160.87622 L 298.07337,161.936 L 296.92992,162.9121 L 295.73072,163.86033 L 294.5036,164.72489 L 293.2207,165.56156 L 291.88205,166.31456 L 290.54338,167.01177 L 289.12104,167.65324 L 287.69872,168.21099 L 286.2206,168.713 L 284.71461,169.13133 L 283.2086,169.49389 L 281.64684,169.77278 L 280.05716,169.968 L 278.43962,170.10743 L 276.82206,170.13532 C 259.36363,170.13532 245.19609,155.96779 245.19609,138.50937 C 245.19609,121.05091 259.36363,106.88339 276.82206,106.88339 C 294.28049,106.88339 308.44803,121.05091 308.44803,138.50937 z "
         style="font-style:normal;font-variant:normal;font-weight:normal;font-stretch:normal;letter-spacing:normal;word-spacing:normal;text-anchor:start;fill:black;fill-opacity:1;stroke:black;stroke-width:0;stroke-linecap:butt;stroke-linejoin:miter;stroke-miterlimit:10.43299961;stroke-dasharray:none;stroke-dashoffset:0;stroke-opacity:1"
         id="path712" />
      <path
         d="M 308.44803,138.50937 L 308.39225,140.1548 L 308.2807,141.74447 L 308.08547,143.33413 L 307.80658,144.89591 L 307.44402,146.42979 L 307.02571,147.90791 L 306.52371,149.38603 L 305.96593,150.83623 L 305.32448,152.23069 L 304.62725,153.59723 L 303.87425,154.90801 L 303.03758,156.19088 L 302.17304,157.44589 L 301.22481,158.61723 L 300.22081,159.78855 L 299.18891,160.87622 L 298.07337,161.936 L 296.92992,162.9121 L 295.73072,163.86033 L 294.5036,164.72489 L 293.2207,165.56156 L 291.88205,166.31456 L 290.54338,167.01177 L 289.12104,167.65324 L 287.69872,168.21099 L 286.2206,168.713 L 284.71461,169.13133 L 283.2086,169.49389 L 281.64684,169.77278 L 280.05716,169.968 L 278.43962,170.10743 L 276.82206,170.13532 C 259.36363,170.13532 245.19609,155.96779 245.19609,138.50937 C 245.19609,121.05091 259.36363,106.88339 276.82206,106.88339 C 294.28049,106.88339 308.44803,121.05091 308.44803,138.50937 z "
         style="font-style:normal;font-variant:normal;font-weight:normal;font-stretch:normal;letter-spacing:normal;word-spacing:normal;text-anchor:start;fill:none;fill-opacity:1;stroke:black;stroke-width:0.26351529;stroke-linecap:butt;stroke-linejoin:miter;stroke-miterlimit:10.43299961;stroke-dasharray:none;stroke-dashoffset:0;stroke-opacity:1"
         id="path714" />
      <path
         d="M 434.92403,138.50937 L 434.89614,140.1548 L 434.7567,141.74447 L 434.56147,143.33413 L 434.28258,144.89591 L 433.92002,146.42979 L 433.50169,147.90791 L 432.99969,149.38603 L 432.4419,150.83623 L 431.80048,152.23069 L 431.10323,153.59723 L 430.35025,154.90801 L 429.51358,156.19088 L 428.64904,157.44589 L 427.70081,158.61723 L 426.7247,159.78855 L 425.66491,160.87622 L 424.57726,161.936 L 423.40592,162.9121 L 422.2346,163.86033 L 420.9796,164.72489 L 419.6967,165.56156 L 418.38594,166.31456 L 417.01938,167.01177 L 415.62492,167.65324 L 414.17472,168.21099 L 412.6966,168.713 L 411.21848,169.13133 L 409.6846,169.49389 L 408.12282,169.77278 L 406.53316,169.968 L 404.94351,170.10743 L 403.29806,170.13532 C 385.83963,170.13532 371.69995,155.96779 371.69995,138.50937 C 371.69995,121.05091 385.83963,106.88339 403.29806,106.88339 C 420.75646,106.88339 434.92403,121.05091 434.92403,138.50937 z "
         style="font-style:normal;font-variant:normal;font-weight:normal;font-stretch:normal;letter-spacing:normal;word-spacing:normal;text-anchor:start;fill:none;fill-opacity:1;stroke:black;stroke-width:0.52701449;stroke-linecap:butt;stroke-linejoin:miter;stroke-miterlimit:10.43299961;stroke-dasharray:none;stroke-dashoffset:0;stroke-opacity:1"
         id="path716" />
      <path
         d="M 205.67756,138.50937 L 205.67756,139.40179 L 205.62178,140.29424 L 205.59391,141.1588 L 205.51025,142.02336 L 205.42656,142.86003 L 205.31502,143.69668 L 205.20345,144.50547 L 205.06402,145.28636 L 204.89667,146.06723 L 204.72935,146.82023 L 204.53413,147.54535 L 204.31102,148.24257 L 204.1158,148.91189 L 203.86479,149.58125 L 203.61379,150.22267 L 203.36279,150.80834 L 203.0839,151.39401 L 202.80501,151.92391 L 202.49825,152.4538 L 202.19147,152.92791 L 201.85678,153.402 L 201.55,153.82034 L 201.18747,154.1829 L 200.8528,154.54545 L 200.49024,154.85223 L 200.12768,155.13112 L 199.73724,155.35424 L 199.3747,155.54946 L 198.98423,155.71679 L 198.56592,155.82835 L 198.17545,155.8841 L 197.78503,155.91199 C 193.40647,155.91199 189.86458,148.13102 189.86458,138.50937 C 189.86458,128.9156 193.40647,121.1346 197.78503,121.1346 C 202.13567,121.1346 205.67756,128.9156 205.67756,138.50937 z "
         style="font-style:normal;font-variant:normal;font-weight:normal;font-stretch:normal;letter-spacing:normal;word-spacing:normal;text-anchor:start;fill:none;fill-opacity:1;stroke:black;stroke-width:0.26351529;stroke-linecap:butt;stroke-linejoin:miter;stroke-miterlimit:10.43299961;stroke-dasharray:none;stroke-dashoffset:0;stroke-opacity:1"
         id="path718" />
      <path
         d="M 221.49056,138.50937 L 221.46267,139.40179 L 221.43478,140.29424 L 221.40689,141.1588 L 221.32322,142.02336 L 221.23956,142.86003 L 221.128,143.69668 L 221.01644,144.50547 L 220.877,145.28636 L 220.70966,146.06723 L 220.54233,146.82023 L 220.34711,147.54535 L 220.12399,148.24257 L 219.90088,148.91189 L 219.67777,149.58125 L 219.42677,150.22267 L 219.17579,150.80834 L 218.8969,151.39401 L 218.61801,151.92391 L 218.31121,152.4538 L 218.00445,152.92791 L 217.66978,153.402 L 217.33511,153.82034 L 217.00044,154.1829 L 216.6658,154.54545 L 216.30322,154.85223 L 215.94068,155.13112 L 215.55024,155.35424 L 215.18768,155.54946 L 214.79723,155.71679 L 214.3789,155.82835 L 213.98845,155.8841 L 213.57011,155.91199 C 209.21947,155.91199 205.67756,148.13102 205.67756,138.50937 C 205.67756,128.9156 209.21947,121.1346 213.57011,121.1346 C 217.94867,121.1346 221.49056,128.9156 221.49056,138.50937 z "
         style="font-style:normal;font-variant:normal;font-weight:normal;font-stretch:normal;letter-spacing:normal;word-spacing:normal;text-anchor:start;fill:none;fill-opacity:1;stroke:black;stroke-width:0.26351529;stroke-linecap:butt;stroke-linejoin:miter;stroke-miterlimit:10.43299961;stroke-dasharray:none;stroke-dashoffset:0;stroke-opacity:1"
         id="path720" />
      <path
         d="M 237.30355,138.50937 L 237.27564,139.40179 L 237.24775,140.29424 L 237.19198,141.1588 L 237.1362,142.02336 L 237.05255,142.86003 L 236.94097,143.69668 L 236.82944,144.50547 L 236.66208,145.28636 L 236.52266,146.06723 L 236.32744,146.82023 L 236.16008,147.54535 L 235.93699,148.24257 L 235.71388,148.91189 L 235.49077,149.58125 L 235.23976,150.22267 L 234.98876,150.80834 L 234.70987,151.39401 L 234.43098,151.92391 L 234.1242,152.4538 L 233.81742,152.92791 L 233.48278,153.402 L 233.14811,153.82034 L 232.81342,154.1829 L 232.47877,154.54545 L 232.11621,154.85223 L 231.75366,155.13112 L 231.36321,155.35424 L 230.97276,155.54946 L 230.58232,155.71679 L 230.19187,155.82835 L 229.80145,155.8841 L 229.38311,155.91199 C 225.03244,155.91199 221.49056,148.13102 221.49056,138.50937 C 221.49056,128.9156 225.03244,121.1346 229.38311,121.1346 C 233.76165,121.1346 237.30355,128.9156 237.30355,138.50937 z "
         style="font-style:normal;font-variant:normal;font-weight:normal;font-stretch:normal;letter-spacing:normal;word-spacing:normal;text-anchor:start;fill:none;fill-opacity:1;stroke:black;stroke-width:0.26351529;stroke-linecap:butt;stroke-linejoin:miter;stroke-miterlimit:10.43299961;stroke-dasharray:none;stroke-dashoffset:0;stroke-opacity:1"
         id="path722" />
      <path
         d="M 332.15356,138.50937 L 332.15356,139.40179 L 332.12567,140.29424 L 332.06989,141.1588 L 331.98622,142.02336 L 331.90256,142.86003 L 331.791,143.69668 L 331.67945,144.50547 L 331.54,145.28636 L 331.37267,146.06723 L 331.20533,146.82023 L 331.01013,147.54535 L 330.81491,148.24257 L 330.59179,148.91189 L 330.34079,149.58125 L 330.11766,150.22267 L 329.83879,150.80834 L 329.5599,151.39401 L 329.28101,151.92391 L 328.97423,152.4538 L 328.66745,152.92791 L 328.36067,153.402 L 328.026,153.82034 L 327.69136,154.1829 L 327.32878,154.54545 L 326.96624,154.85223 L 326.60368,155.13112 L 326.24113,155.35424 L 325.85068,155.54946 L 325.46023,155.71679 L 325.06979,155.82835 L 324.65145,155.8841 L 324.261,155.91199 C 319.88247,155.91199 316.34058,148.13102 316.34058,138.50937 C 316.34058,128.9156 319.88247,121.1346 324.261,121.1346 C 328.61167,121.1346 332.15356,128.9156 332.15356,138.50937 z "
         style="font-style:normal;font-variant:normal;font-weight:normal;font-stretch:normal;letter-spacing:normal;word-spacing:normal;text-anchor:start;fill:none;fill-opacity:1;stroke:black;stroke-width:0.26351529;stroke-linecap:butt;stroke-linejoin:miter;stroke-miterlimit:10.43299961;stroke-dasharray:none;stroke-dashoffset:0;stroke-opacity:1"
         id="path724" />
      <path
         d="M 347.96653,138.50937 L 347.96653,139.40179 L 347.93864,140.29424 L 347.88289,141.1588 L 347.79922,142.02336 L 347.71553,142.86003 L 347.604,143.69668 L 347.49244,144.50547 L 347.353,145.28636 L 347.18566,146.06723 L 347.01833,146.82023 L 346.82311,147.54535 L 346.62788,148.24257 L 346.40477,148.91189 L 346.15377,149.58125 L 345.90277,150.22267 L 345.65177,150.80834 L 345.37288,151.39401 L 345.09398,151.92391 L 344.78723,152.4538 L 344.48045,152.92791 L 344.17367,153.402 L 343.839,153.82034 L 343.50433,154.1829 L 343.14177,154.54545 L 342.77922,154.85223 L 342.41666,155.13112 L 342.02621,155.35424 L 341.66368,155.54946 L 341.27321,155.71679 L 340.88278,155.82835 L 340.46443,155.8841 L 340.074,155.91199 C 335.69544,155.91199 332.15356,148.13102 332.15356,138.50937 C 332.15356,128.9156 335.69544,121.1346 340.074,121.1346 C 344.42467,121.1346 347.96653,128.9156 347.96653,138.50937 z "
         style="font-style:normal;font-variant:normal;font-weight:normal;font-stretch:normal;letter-spacing:normal;word-spacing:normal;text-anchor:start;fill:none;fill-opacity:1;stroke:black;stroke-width:0.26351529;stroke-linecap:butt;stroke-linejoin:miter;stroke-miterlimit:10.43299961;stroke-dasharray:none;stroke-dashoffset:0;stroke-opacity:1"
         id="path726" />
      <path
         d="M 363.77953,138.50937 L 363.77953,139.40179 L 363.75164,140.29424 L 363.69586,141.1588 L 363.6122,142.02336 L 363.52853,142.86003 L 363.41697,143.69668 L 363.30542,144.50547 L 363.16597,145.28636 L 362.99864,146.06723 L 362.83133,146.82023 L 362.63608,147.54535 L 362.44086,148.24257 L 362.21774,148.91189 L 361.96677,149.58125 L 361.71576,150.22267 L 361.46476,150.80834 L 361.18587,151.39401 L 360.90698,151.92391 L 360.6002,152.4538 L 360.29342,152.92791 L 359.98664,153.402 L 359.65198,153.82034 L 359.28942,154.1829 L 358.95477,154.54545 L 358.59219,154.85223 L 358.22966,155.13112 L 357.83921,155.35424 L 357.47665,155.54946 L 357.08621,155.71679 L 356.66787,155.82835 L 356.27742,155.8841 L 355.887,155.91199 C 351.50844,155.91199 347.96653,148.13102 347.96653,138.50937 C 347.96653,128.9156 351.50844,121.1346 355.887,121.1346 C 360.23764,121.1346 363.77953,128.9156 363.77953,138.50937 z "
         style="font-style:normal;font-variant:normal;font-weight:normal;font-stretch:normal;letter-spacing:normal;word-spacing:normal;text-anchor:start;fill:none;fill-opacity:1;stroke:black;stroke-width:0.26351529;stroke-linecap:butt;stroke-linejoin:miter;stroke-miterlimit:10.43299961;stroke-dasharray:none;stroke-dashoffset:0;stroke-opacity:1"
         id="path728" />
      <line
         x1="118.72013"
         y1="138.50932"
         x2="71.281128"
         y2="138.50932"
         style="font-style:normal;font-variant:normal;font-weight:normal;font-stretch:normal;letter-spacing:normal;word-spacing:normal;text-anchor:start;fill:none;fill-opacity:1;stroke:black;stroke-width:1.5810436;stroke-linecap:butt;stroke-linejoin:miter;stroke-miterlimit:10.43299961;stroke-dasharray:none;stroke-dashoffset:0;stroke-opacity:1"
         id="line730" />
      <polygon
         points="147.29,353.21 141.24,351.7 147.29,350.19 147.29,353.21 "
         transform="matrix(2.788886,0,0,-2.788886,-319.2187,1119.36)"
         style="font-style:normal;font-variant:normal;font-weight:normal;font-stretch:normal;letter-spacing:normal;word-spacing:normal;text-anchor:start;fill:black;fill-opacity:1;stroke:black;stroke-width:0;stroke-linecap:butt;stroke-linejoin:miter;stroke-miterlimit:10.43299961;stroke-dasharray:none;stroke-dashoffset:0;stroke-opacity:1"
         id="polygon732" />
      <polygon
         points="147.29,353.21 141.24,351.7 147.29,350.19 147.29,353.21 "
         transform="matrix(2.788886,0,0,-2.788886,-319.2187,1119.36)"
         style="font-style:normal;font-variant:normal;font-weight:normal;font-stretch:normal;letter-spacing:normal;word-spacing:normal;text-anchor:start;fill:none;fill-opacity:1;stroke:black;stroke-width:0.56691003;stroke-linecap:butt;stroke-linejoin:miter;stroke-miterlimit:10.43299961;stroke-dasharray:none;stroke-dashoffset:0;stroke-opacity:1"
         id="polygon734" />
      <line
         x1="434.92407"
         y1="138.50932"
         x2="482.36301"
         y2="138.50932"
         style="font-style:normal;font-variant:normal;font-weight:normal;font-stretch:normal;letter-spacing:normal;word-spacing:normal;text-anchor:start;fill:none;fill-opacity:1;stroke:black;stroke-width:1.5810436;stroke-linecap:butt;stroke-linejoin:miter;stroke-miterlimit:10.43299961;stroke-dasharray:none;stroke-dashoffset:0;stroke-opacity:1"
         id="line736" />
      <polygon
         points="280.15,350.19 286.2,351.7 280.15,353.21 280.15,350.19 "
         transform="matrix(2.788886,0,0,-2.788886,-319.2187,1119.36)"
         style="font-style:normal;font-variant:normal;font-weight:normal;font-stretch:normal;letter-spacing:normal;word-spacing:normal;text-anchor:start;fill:black;fill-opacity:1;stroke:black;stroke-width:0;stroke-linecap:butt;stroke-linejoin:miter;stroke-miterlimit:10.43299961;stroke-dasharray:none;stroke-dashoffset:0;stroke-opacity:1"
         id="polygon738" />
      <polygon
         points="280.15,350.19 286.2,351.7 280.15,353.21 280.15,350.19 "
         transform="matrix(2.788886,0,0,-2.788886,-319.2187,1119.36)"
         style="font-style:normal;font-variant:normal;font-weight:normal;font-stretch:normal;letter-spacing:normal;word-spacing:normal;text-anchor:start;fill:none;fill-opacity:1;stroke:black;stroke-width:0.56691003;stroke-linecap:butt;stroke-linejoin:miter;stroke-miterlimit:10.43299961;stroke-dasharray:none;stroke-dashoffset:0;stroke-opacity:1"
         id="polygon740" />
      <text
         x="57.27911"
         y="66.817154"
         style="font-size:25.29675484px;font-style:normal;font-variant:normal;font-weight:normal;font-stretch:normal;letter-spacing:normal;word-spacing:normal;text-anchor:start;fill:black;fill-opacity:1;stroke:none;stroke-linecap:butt;stroke-linejoin:miter;stroke-miterlimit:10.43299961;stroke-dasharray:none;stroke-dashoffset:0;stroke-opacity:1;font-family:Times-Roman, &quot;Times Roman&quot;, serif"
         id="text790">(a)</text>
    </g>
    <g
       transform="translate(-475.9797,237.8547)"
       id="g2258">
      <path
         d="M 673.65268,119.54493 L 673.31802,119.46126 L 672.95548,119.40548 L 672.62079,119.3497 L 672.28612,119.29393 L 671.95147,119.23815 L 671.58892,119.18237 L 671.25425,119.12659 L 670.91958,119.0987 L 670.55702,119.07081 L 670.22235,119.04292 L 669.85982,119.01504 L 669.52513,118.98715 L 669.16257,118.95926 L 668.82792,118.95926 L 668.46537,118.95926 L 668.1307,118.95926 C 663.38958,118.95926 658.73216,120.24215 654.68827,122.72426"
         style="font-style:normal;font-variant:normal;font-weight:normal;font-stretch:normal;letter-spacing:normal;word-spacing:normal;text-anchor:start;fill:none;fill-opacity:1;stroke:black;stroke-width:0.26351529;stroke-linecap:butt;stroke-linejoin:miter;stroke-miterlimit:10.43299961;stroke-dasharray:none;stroke-dashoffset:0;stroke-opacity:1"
         id="path610" />
      <path
         d="M 705.30655,119.54493 L 705.64121,119.46126 L 705.97588,119.40548 L 706.33844,119.3497 L 706.67311,119.29393 L 707.00778,119.23815 L 707.37031,119.18237 L 707.70498,119.12659 L 708.03965,119.0987 L 708.40221,119.07081 L 708.73688,119.04292 L 709.07154,119.01504 L 709.4341,118.98715 L 709.76877,118.95926 L 710.13133,118.95926 L 710.466,118.95926 L 710.82853,118.95926 C 715.56965,118.95926 720.22709,120.24215 724.27098,122.72426"
         style="font-style:normal;font-variant:normal;font-weight:normal;font-stretch:normal;letter-spacing:normal;word-spacing:normal;text-anchor:start;fill:none;fill-opacity:1;stroke:black;stroke-width:0.26351529;stroke-linecap:butt;stroke-linejoin:miter;stroke-miterlimit:10.43299961;stroke-dasharray:none;stroke-dashoffset:0;stroke-opacity:1"
         id="path612" />
      <path
         d="M 800.12868,119.54493 L 799.79402,119.46126 L 799.45935,119.40548 L 799.09679,119.3497 L 798.76212,119.29393 L 798.42745,119.23815 L 798.06489,119.18237 L 797.73025,119.12659 L 797.39558,119.0987 L 797.033,119.07081 L 796.69835,119.04292 L 796.36369,119.01504 L 796.00113,118.98715 L 795.66646,118.95926 L 795.3039,118.95926 L 794.96923,118.95926 L 794.6067,118.95926 C 789.86558,118.95926 785.20814,120.24215 781.16427,122.72426"
         style="font-style:normal;font-variant:normal;font-weight:normal;font-stretch:normal;letter-spacing:normal;word-spacing:normal;text-anchor:start;fill:none;fill-opacity:1;stroke:black;stroke-width:0.26351529;stroke-linecap:butt;stroke-linejoin:miter;stroke-miterlimit:10.43299961;stroke-dasharray:none;stroke-dashoffset:0;stroke-opacity:1"
         id="path614" />
      <path
         d="M 831.78254,119.54493 L 832.11719,119.46126 L 832.47977,119.40548 L 832.81444,119.3497 L 833.14909,119.29393 L 833.48375,119.23815 L 833.84631,119.18237 L 834.18098,119.12659 L 834.51565,119.0987 L 834.87821,119.07081 L 835.21287,119.04292 L 835.57543,119.01504 L 835.9101,118.98715 L 836.27264,118.95926 L 836.6073,118.95926 L 836.96988,118.95926 L 837.30453,118.95926 C 842.04565,118.95926 846.70309,120.24215 850.74696,122.72426"
         style="font-style:normal;font-variant:normal;font-weight:normal;font-stretch:normal;letter-spacing:normal;word-spacing:normal;text-anchor:start;fill:none;fill-opacity:1;stroke:black;stroke-width:0.26351529;stroke-linecap:butt;stroke-linejoin:miter;stroke-miterlimit:10.43299961;stroke-dasharray:none;stroke-dashoffset:0;stroke-opacity:1"
         id="path616" />
      <path
         d="M 657.86758,136.94758 L 657.8118,138.56514 L 657.70026,140.18269 L 657.47715,141.74447 L 657.19826,143.30624 L 656.86359,144.84013 L 656.44526,146.34612 L 655.94328,147.79635 L 655.35758,149.24656 L 654.74403,150.64101 L 654.04682,152.00757 L 653.26593,153.34622 L 652.45715,154.62912 L 651.56472,155.85624 L 650.64438,157.05547 L 649.64038,158.1989 L 648.58059,159.28655 L 647.49292,160.34633 L 646.34949,161.35033 L 645.15026,162.27067 L 643.92314,163.1631 L 642.64027,163.97188 L 641.3016,164.75278 L 639.93506,165.45 L 638.5406,166.06356 L 637.11829,166.64923 L 635.64017,167.12334 L 634.13416,167.56955 L 632.60028,167.90421 L 631.0385,168.18311 L 629.47673,168.40622 L 627.85917,168.51777 L 626.24163,168.54566 C 608.75529,168.54566 594.61565,154.40601 594.61565,136.94758 C 594.61565,119.46126 608.75529,105.32161 626.24163,105.32161 C 643.70005,105.32161 657.86758,119.46126 657.86758,136.94758 z "
         style="font-style:normal;font-variant:normal;font-weight:normal;font-stretch:normal;letter-spacing:normal;word-spacing:normal;text-anchor:start;fill:none;fill-opacity:1;stroke:black;stroke-width:0.52701449;stroke-linecap:butt;stroke-linejoin:miter;stroke-miterlimit:10.43299961;stroke-dasharray:none;stroke-dashoffset:0;stroke-opacity:1"
         id="path618" />
      <path
         d="M 784.34358,136.94758 L 784.28782,138.56514 L 784.17624,140.18269 L 783.98104,141.74447 L 783.70215,143.30624 L 783.33957,144.84013 L 782.92126,146.34612 L 782.41925,147.79635 L 781.86147,149.24656 L 781.22003,150.64101 L 780.5228,152.00757 L 779.76982,153.34622 L 778.93315,154.62912 L 778.06859,155.85624 L 777.12036,157.05547 L 776.11638,158.1989 L 775.08448,159.28655 L 773.96894,160.34633 L 772.82549,161.35033 L 771.62626,162.27067 L 770.39914,163.1631 L 769.11625,163.97188 L 767.7776,164.75278 L 766.43894,165.45 L 765.0166,166.06356 L 763.59428,166.64923 L 762.11617,167.12334 L 760.61016,167.56955 L 759.10415,167.90421 L 757.54239,168.18311 L 755.95271,168.40622 L 754.33517,168.51777 L 752.71763,168.54566 C 735.25918,168.54566 721.09163,154.40601 721.09163,136.94758 C 721.09163,119.46126 735.25918,105.32161 752.71763,105.32161 C 770.17603,105.32161 784.34358,119.46126 784.34358,136.94758 z "
         style="font-style:normal;font-variant:normal;font-weight:normal;font-stretch:normal;letter-spacing:normal;word-spacing:normal;text-anchor:start;fill:black;fill-opacity:1;stroke:black;stroke-width:0;stroke-linecap:butt;stroke-linejoin:miter;stroke-miterlimit:10.43299961;stroke-dasharray:none;stroke-dashoffset:0;stroke-opacity:1"
         id="path620" />
      <path
         d="M 784.34358,136.94758 L 784.28782,138.56514 L 784.17624,140.18269 L 783.98104,141.74447 L 783.70215,143.30624 L 783.33957,144.84013 L 782.92126,146.34612 L 782.41925,147.79635 L 781.86147,149.24656 L 781.22003,150.64101 L 780.5228,152.00757 L 779.76982,153.34622 L 778.93315,154.62912 L 778.06859,155.85624 L 777.12036,157.05547 L 776.11638,158.1989 L 775.08448,159.28655 L 773.96894,160.34633 L 772.82549,161.35033 L 771.62626,162.27067 L 770.39914,163.1631 L 769.11625,163.97188 L 767.7776,164.75278 L 766.43894,165.45 L 765.0166,166.06356 L 763.59428,166.64923 L 762.11617,167.12334 L 760.61016,167.56955 L 759.10415,167.90421 L 757.54239,168.18311 L 755.95271,168.40622 L 754.33517,168.51777 L 752.71763,168.54566 C 735.25918,168.54566 721.09163,154.40601 721.09163,136.94758 C 721.09163,119.46126 735.25918,105.32161 752.71763,105.32161 C 770.17603,105.32161 784.34358,119.46126 784.34358,136.94758 z "
         style="font-style:normal;font-variant:normal;font-weight:normal;font-stretch:normal;letter-spacing:normal;word-spacing:normal;text-anchor:start;fill:none;fill-opacity:1;stroke:black;stroke-width:0.26351529;stroke-linecap:butt;stroke-linejoin:miter;stroke-miterlimit:10.43299961;stroke-dasharray:none;stroke-dashoffset:0;stroke-opacity:1"
         id="path622" />
      <path
         d="M 910.81958,136.94758 L 910.79169,138.56514 L 910.65224,140.18269 L 910.45702,141.74447 L 910.17813,143.30624 L 909.81557,144.84013 L 909.39723,146.34612 L 908.89525,147.79635 L 908.33747,149.24656 L 907.69602,150.64101 L 906.9988,152.00757 L 906.24579,153.34622 L 905.40915,154.62912 L 904.54459,155.85624 L 903.59636,157.05547 L 902.62024,158.1989 L 901.56048,159.28655 L 900.47281,160.34633 L 899.30147,161.35033 L 898.13015,162.27067 L 896.87514,163.1631 L 895.59227,163.97188 L 894.28149,164.75278 L 892.91492,165.45 L 891.52047,166.06356 L 890.07026,166.64923 L 888.59217,167.12334 L 887.11405,167.56955 L 885.58015,167.90421 L 884.01838,168.18311 L 882.42871,168.40622 L 880.83906,168.51777 L 879.1936,168.54566 C 861.73517,168.54566 847.59552,154.40601 847.59552,136.94758 C 847.59552,119.46126 861.73517,105.32161 879.1936,105.32161 C 896.65203,105.32161 910.81958,119.46126 910.81958,136.94758 z "
         style="font-style:normal;font-variant:normal;font-weight:normal;font-stretch:normal;letter-spacing:normal;word-spacing:normal;text-anchor:start;fill:none;fill-opacity:1;stroke:black;stroke-width:0.52701449;stroke-linecap:butt;stroke-linejoin:miter;stroke-miterlimit:10.43299961;stroke-dasharray:none;stroke-dashoffset:0;stroke-opacity:1"
         id="path624" />
      <path
         d="M 681.57313,136.94758 L 681.57313,137.84003 L 681.51735,138.70459 L 681.48946,139.59702 L 681.40579,140.43369 L 681.32213,141.27036 L 681.21057,142.10703 L 681.09901,142.91581 L 680.95957,143.69668 L 680.79223,144.47758 L 680.6249,145.23058 L 680.42968,145.9557 L 680.20659,146.6529 L 680.01134,147.35013 L 679.76034,147.99157 L 679.50934,148.63302 L 679.25834,149.24656 L 678.97945,149.80434 L 678.70058,150.36214 L 678.3938,150.86412 L 678.08702,151.36612 L 677.75235,151.81235 L 677.44557,152.23069 L 677.08301,152.62113 L 676.74835,152.9558 L 676.38579,153.26258 L 676.02325,153.54145 L 675.63278,153.79245 L 675.27025,153.98767 L 674.87978,154.12712 L 674.46147,154.23867 L 674.07102,154.29445 L 673.65268,154.32234 C 669.30202,154.32234 665.76015,146.54137 665.76015,136.94758 C 665.76015,127.32593 669.30202,119.54493 673.65268,119.54493 C 678.03124,119.54493 681.57313,127.32593 681.57313,136.94758 z "
         style="font-style:normal;font-variant:normal;font-weight:normal;font-stretch:normal;letter-spacing:normal;word-spacing:normal;text-anchor:start;fill:none;fill-opacity:1;stroke:black;stroke-width:0.26351529;stroke-linecap:butt;stroke-linejoin:miter;stroke-miterlimit:10.43299961;stroke-dasharray:none;stroke-dashoffset:0;stroke-opacity:1"
         id="path626" />
      <path
         d="M 697.3861,136.94758 L 697.35821,137.84003 L 697.33032,138.70459 L 697.30244,139.59702 L 697.21879,140.43369 L 697.1351,141.27036 L 697.02357,142.10703 L 696.91199,142.91581 L 696.77257,143.69668 L 696.60521,144.47758 L 696.4379,145.23058 L 696.24267,145.9557 L 696.01956,146.6529 L 695.79643,147.35013 L 695.57334,147.99157 L 695.32234,148.63302 L 695.07133,149.24656 L 694.79244,149.80434 L 694.51355,150.36214 L 694.20677,150.86412 L 693.90002,151.36612 L 693.56533,151.81235 L 693.23066,152.23069 L 692.89601,152.62113 L 692.56134,152.9558 L 692.19879,153.26258 L 691.83623,153.54145 L 691.44578,153.79245 L 691.08322,153.98767 L 690.69278,154.12712 L 690.27446,154.23867 L 689.88399,154.29445 L 689.46568,154.32234 C 685.11501,154.32234 681.57313,146.54137 681.57313,136.94758 C 681.57313,127.32593 685.11501,119.54493 689.46568,119.54493 C 693.84422,119.54493 697.3861,127.32593 697.3861,136.94758 z "
         style="font-style:normal;font-variant:normal;font-weight:normal;font-stretch:normal;letter-spacing:normal;word-spacing:normal;text-anchor:start;fill:none;fill-opacity:1;stroke:black;stroke-width:0.26351529;stroke-linecap:butt;stroke-linejoin:miter;stroke-miterlimit:10.43299961;stroke-dasharray:none;stroke-dashoffset:0;stroke-opacity:1"
         id="path628" />
      <path
         d="M 713.1991,136.94758 L 713.17121,137.84003 L 713.14332,138.70459 L 713.08752,139.59702 L 713.03177,140.43369 L 712.9481,141.27036 L 712.83654,142.10703 L 712.72499,142.91581 L 712.55765,143.69668 L 712.41821,144.47758 L 712.22298,145.23058 L 712.05565,145.9557 L 711.83254,146.6529 L 711.60942,147.35013 L 711.38631,147.99157 L 711.13531,148.63302 L 710.88433,149.24656 L 710.60544,149.80434 L 710.32655,150.36214 L 710.01975,150.86412 L 709.71299,151.36612 L 709.37832,151.81235 L 709.04365,152.23069 L 708.70899,152.62113 L 708.37432,152.9558 L 708.01176,153.26258 L 707.6492,153.54145 L 707.25878,153.79245 L 706.86831,153.98767 L 706.47789,154.12712 L 706.08744,154.23867 L 705.69699,154.29445 L 705.27866,154.32234 C 700.92799,154.32234 697.3861,146.54137 697.3861,136.94758 C 697.3861,127.32593 700.92799,119.54493 705.27866,119.54493 C 709.65721,119.54493 713.1991,127.32593 713.1991,136.94758 z "
         style="font-style:normal;font-variant:normal;font-weight:normal;font-stretch:normal;letter-spacing:normal;word-spacing:normal;text-anchor:start;fill:none;fill-opacity:1;stroke:black;stroke-width:0.26351529;stroke-linecap:butt;stroke-linejoin:miter;stroke-miterlimit:10.43299961;stroke-dasharray:none;stroke-dashoffset:0;stroke-opacity:1"
         id="path630" />
      <path
         d="M 808.04913,136.94758 L 808.04913,137.84003 L 808.02124,138.70459 L 807.96546,139.59702 L 807.88177,140.43369 L 807.79813,141.27036 L 807.68657,142.10703 L 807.57501,142.91581 L 807.43557,143.69668 L 807.26823,144.47758 L 807.1009,145.23058 L 806.90568,145.9557 L 806.71045,146.6529 L 806.48734,147.35013 L 806.23634,147.99157 L 806.01323,148.63302 L 805.73434,149.24656 L 805.45547,149.80434 L 805.17658,150.36214 L 804.8698,150.86412 L 804.563,151.36612 L 804.25622,151.81235 L 803.92157,152.23069 L 803.5869,152.62113 L 803.22435,152.9558 L 802.86179,153.26258 L 802.49923,153.54145 L 802.13667,153.79245 L 801.74623,153.98767 L 801.3558,154.12712 L 800.96536,154.23867 L 800.54702,154.29445 L 800.15657,154.32234 C 795.77802,154.32234 792.23613,146.54137 792.23613,136.94758 C 792.23613,127.32593 795.77802,119.54493 800.15657,119.54493 C 804.50722,119.54493 808.04913,127.32593 808.04913,136.94758 z "
         style="font-style:normal;font-variant:normal;font-weight:normal;font-stretch:normal;letter-spacing:normal;word-spacing:normal;text-anchor:start;fill:none;fill-opacity:1;stroke:black;stroke-width:0.26351529;stroke-linecap:butt;stroke-linejoin:miter;stroke-miterlimit:10.43299961;stroke-dasharray:none;stroke-dashoffset:0;stroke-opacity:1"
         id="path632" />
      <path
         d="M 823.8621,136.94758 L 823.8621,137.84003 L 823.83421,138.70459 L 823.77843,139.59702 L 823.69477,140.43369 L 823.6111,141.27036 L 823.49954,142.10703 L 823.38799,142.91581 L 823.24857,143.69668 L 823.08121,144.47758 L 822.91387,145.23058 L 822.71867,145.9557 L 822.52345,146.6529 L 822.30032,147.35013 L 822.04931,147.99157 L 821.79831,148.63302 L 821.54731,149.24656 L 821.26844,149.80434 L 820.98955,150.36214 L 820.68277,150.86412 L 820.37599,151.36612 L 820.06921,151.81235 L 819.73455,152.23069 L 819.3999,152.62113 L 819.03732,152.9558 L 818.67476,153.26258 L 818.31223,153.54145 L 817.92176,153.79245 L 817.55922,153.98767 L 817.16878,154.12712 L 816.77833,154.23867 L 816.35999,154.29445 L 815.96955,154.32234 C 811.59101,154.32234 808.04913,146.54137 808.04913,136.94758 C 808.04913,127.32593 811.59101,119.54493 815.96955,119.54493 C 820.32022,119.54493 823.8621,127.32593 823.8621,136.94758 z "
         style="font-style:normal;font-variant:normal;font-weight:normal;font-stretch:normal;letter-spacing:normal;word-spacing:normal;text-anchor:start;fill:none;fill-opacity:1;stroke:black;stroke-width:0.26351529;stroke-linecap:butt;stroke-linejoin:miter;stroke-miterlimit:10.43299961;stroke-dasharray:none;stroke-dashoffset:0;stroke-opacity:1"
         id="path634" />
      <path
         d="M 839.67508,136.94758 L 839.67508,137.84003 L 839.64719,138.70459 L 839.59141,139.59702 L 839.50776,140.43369 L 839.42408,141.27036 L 839.31254,142.10703 L 839.20099,142.91581 L 839.06154,143.69668 L 838.89421,144.47758 L 838.72687,145.23058 L 838.53165,145.9557 L 838.33643,146.6529 L 838.11331,147.35013 L 837.86231,147.99157 L 837.61131,148.63302 L 837.36031,149.24656 L 837.08142,149.80434 L 836.80253,150.36214 L 836.49575,150.86412 L 836.18899,151.36612 L 835.88221,151.81235 L 835.54754,152.23069 L 835.18499,152.62113 L 834.85032,152.9558 L 834.48776,153.26258 L 834.1252,153.54145 L 833.73476,153.79245 L 833.3722,153.98767 L 832.98175,154.12712 L 832.59133,154.23867 L 832.17297,154.29445 L 831.78254,154.32234 C 827.40399,154.32234 823.8621,146.54137 823.8621,136.94758 C 823.8621,127.32593 827.40399,119.54493 831.78254,119.54493 C 836.13321,119.54493 839.67508,127.32593 839.67508,136.94758 z "
         style="font-style:normal;font-variant:normal;font-weight:normal;font-stretch:normal;letter-spacing:normal;word-spacing:normal;text-anchor:start;fill:none;fill-opacity:1;stroke:black;stroke-width:0.26351529;stroke-linecap:butt;stroke-linejoin:miter;stroke-miterlimit:10.43299961;stroke-dasharray:none;stroke-dashoffset:0;stroke-opacity:1"
         id="path636" />
      <line
         x1="910.8197"
         y1="136.94756"
         x2="958.25854"
         y2="136.94756"
         style="font-style:normal;font-variant:normal;font-weight:normal;font-stretch:normal;letter-spacing:normal;word-spacing:normal;text-anchor:start;fill:none;fill-opacity:1;stroke:black;stroke-width:1.5810436;stroke-linecap:butt;stroke-linejoin:miter;stroke-miterlimit:10.43299961;stroke-dasharray:none;stroke-dashoffset:0;stroke-opacity:1"
         id="line638" />
      <polygon
         points="450.79,350.75 456.84,352.26 450.79,353.78 450.79,350.75 "
         transform="matrix(2.788886,0,0,-2.788886,-319.2187,1119.36)"
         style="font-style:normal;font-variant:normal;font-weight:normal;font-stretch:normal;letter-spacing:normal;word-spacing:normal;text-anchor:start;fill:black;fill-opacity:1;stroke:black;stroke-width:0;stroke-linecap:butt;stroke-linejoin:miter;stroke-miterlimit:10.43299961;stroke-dasharray:none;stroke-dashoffset:0;stroke-opacity:1"
         id="polygon640" />
      <polygon
         points="450.79,350.75 456.84,352.26 450.79,353.78 450.79,350.75 "
         transform="matrix(2.788886,0,0,-2.788886,-319.2187,1119.36)"
         style="font-style:normal;font-variant:normal;font-weight:normal;font-stretch:normal;letter-spacing:normal;word-spacing:normal;text-anchor:start;fill:none;fill-opacity:1;stroke:black;stroke-width:0.56691003;stroke-linecap:butt;stroke-linejoin:miter;stroke-miterlimit:10.43299961;stroke-dasharray:none;stroke-dashoffset:0;stroke-opacity:1"
         id="polygon642" />
      <line
         x1="626.24164"
         y1="92.659981"
         x2="673.65271"
         y2="92.659981"
         style="font-style:normal;font-variant:normal;font-weight:normal;font-stretch:normal;letter-spacing:normal;word-spacing:normal;text-anchor:start;fill:none;fill-opacity:1;stroke:black;stroke-width:1.5810436;stroke-linecap:butt;stroke-linejoin:miter;stroke-miterlimit:10.43299961;stroke-dasharray:none;stroke-dashoffset:0;stroke-opacity:1"
         id="line644" />
      <polygon
         points="348.74,366.63 354.79,368.14 348.74,369.65 348.74,366.63 "
         transform="matrix(2.788886,0,0,-2.788886,-319.2187,1119.36)"
         style="font-style:normal;font-variant:normal;font-weight:normal;font-stretch:normal;letter-spacing:normal;word-spacing:normal;text-anchor:start;fill:black;fill-opacity:1;stroke:black;stroke-width:0;stroke-linecap:butt;stroke-linejoin:miter;stroke-miterlimit:10.43299961;stroke-dasharray:none;stroke-dashoffset:0;stroke-opacity:1"
         id="polygon646" />
      <polygon
         points="348.74,366.63 354.79,368.14 348.74,369.65 348.74,366.63 "
         transform="matrix(2.788886,0,0,-2.788886,-319.2187,1119.36)"
         style="font-style:normal;font-variant:normal;font-weight:normal;font-stretch:normal;letter-spacing:normal;word-spacing:normal;text-anchor:start;fill:none;fill-opacity:1;stroke:black;stroke-width:0.56691003;stroke-linecap:butt;stroke-linejoin:miter;stroke-miterlimit:10.43299961;stroke-dasharray:none;stroke-dashoffset:0;stroke-opacity:1"
         id="polygon648" />
      <line
         x1="752.71753"
         y1="92.659981"
         x2="705.27869"
         y2="92.659981"
         style="font-style:normal;font-variant:normal;font-weight:normal;font-stretch:normal;letter-spacing:normal;word-spacing:normal;text-anchor:start;fill:none;fill-opacity:1;stroke:black;stroke-width:1.5810436;stroke-linecap:butt;stroke-linejoin:miter;stroke-miterlimit:10.43299961;stroke-dasharray:none;stroke-dashoffset:0;stroke-opacity:1"
         id="line650" />
      <polygon
         points="374.62,369.65 368.58,368.14 374.62,366.63 374.62,369.65 "
         transform="matrix(2.788886,0,0,-2.788886,-319.2187,1119.36)"
         style="font-style:normal;font-variant:normal;font-weight:normal;font-stretch:normal;letter-spacing:normal;word-spacing:normal;text-anchor:start;fill:black;fill-opacity:1;stroke:black;stroke-width:0;stroke-linecap:butt;stroke-linejoin:miter;stroke-miterlimit:10.43299961;stroke-dasharray:none;stroke-dashoffset:0;stroke-opacity:1"
         id="polygon652" />
      <polygon
         points="374.62,369.65 368.58,368.14 374.62,366.63 374.62,369.65 "
         transform="matrix(2.788886,0,0,-2.788886,-319.2187,1119.36)"
         style="font-style:normal;font-variant:normal;font-weight:normal;font-stretch:normal;letter-spacing:normal;word-spacing:normal;text-anchor:start;fill:none;fill-opacity:1;stroke:black;stroke-width:0.56691003;stroke-linecap:butt;stroke-linejoin:miter;stroke-miterlimit:10.43299961;stroke-dasharray:none;stroke-dashoffset:0;stroke-opacity:1"
         id="polygon654" />
      <text
         x="531.55988"
         y="68.93959"
         style="font-size:25.29675484px;font-style:normal;font-variant:normal;font-weight:normal;font-stretch:normal;letter-spacing:normal;word-spacing:normal;text-anchor:start;fill:black;fill-opacity:1;stroke:none;stroke-linecap:butt;stroke-linejoin:miter;stroke-miterlimit:10.43299961;stroke-dasharray:none;stroke-dashoffset:0;stroke-opacity:1;font-family:Times-Roman, &quot;Times Roman&quot;, serif"
         id="text792">(b)</text>
    </g>
  </g>
</svg>
